<svg height="753" viewBox="0 0 1440 753" width="1440" xmlns="http://www.w3.org/2000/svg" xmlns:xlink="http://www.w3.org/1999/xlink"><linearGradient id="a" x1="0%" x2="98.288475%" y1="0%" y2="80.30269%"><stop offset="0" stop-color="#4178e7"/><stop offset="1" stop-color="#477eec"/></linearGradient><linearGradient id="b" x1="0%" x2="89.120228%" y1="100%" y2="22.23606%"><stop offset="0" stop-color="#477eec"/><stop offset="1" stop-color="#5288f5"/></linearGradient><linearGradient id="c" x1="101.205512%" x2="0%" y1="19.106856%" y2="73.487449%"><stop offset="0" stop-color="#1b52c3"/><stop offset="1" stop-color="#5087f7"/></linearGradient><linearGradient id="d" x1="100%" x2="0%" y1="19.763489%" y2="64.044449%"><stop offset="0" stop-color="#558af6"/><stop offset="1" stop-color="#5087f7"/></linearGradient><linearGradient id="e" x1="3.971814%" x2="113.236711%" y1="59.932776%" y2="23.059589%"><stop offset="0" stop-color="#5187f7"/><stop offset="1" stop-color="#5188f7"/></linearGradient><linearGradient id="f" x1="0%" x2="100%" y1="74.481616%" y2="26.30558%"><stop offset="0" stop-color="#3d74e4"/><stop offset="1" stop-color="#548af6"/></linearGradient><linearGradient id="g" x1="4.873968%" x2="72.813207%" y1="50%" y2="2.616427%"><stop offset="0" stop-color="#2e65d6"/><stop offset="1" stop-color="#5188f7"/></linearGradient><g fill="none" fill-rule="evenodd"><path d="m235 0v138.449159l-235 49.550841v-188z" fill="url(#a)"/><path d="m234 0v139l481-99.623048v-39.376952z" fill="url(#b)"/><path d="m0 187.352823v377.647177l1446-292.458596v-272.541404h-549.581399z" fill="url(#c)"/><path d="m768 225.35455 680-156.35455-7.97737 204.840404-672.02263 138.159596z" fill="url(#d)"/><path d="m0 564.063579v188.936421l478-96.70096v-191.29904z" fill="url(#e)"/><path d="m473 465.932435 970-199.932435v202.048016l-965.066223 188.265689z" fill="url(#f)"/><path d="m714 0v40l206-40z" fill="url(#g)"/></g></svg>