<svg height="753" viewBox="0 0 1440 753" width="1440" xmlns="http://www.w3.org/2000/svg" xmlns:xlink="http://www.w3.org/1999/xlink"><linearGradient id="a" x1="0%" x2="95.172575%" y1="0%" y2="77.756967%"><stop offset="0" stop-color="#f87250"/><stop offset="1" stop-color="#fc9e6e"/></linearGradient><linearGradient id="b" x1="0%" x2="87.075743%" y1="100%" y2="24.020023%"><stop offset="0" stop-color="#fa8a60"/><stop offset="1" stop-color="#fa8d62"/></linearGradient><linearGradient id="c" x1="101.205512%" x2="0%" y1="19.106856%" y2="73.487449%"><stop offset="0" stop-color="#f97552"/><stop offset="1" stop-color="#fb9e6d"/></linearGradient><linearGradient id="d" x1="100%" x2="0%" y1="19.763489%" y2="64.044449%"><stop offset="0" stop-color="#fa895f"/><stop offset="1" stop-color="#fa8d62"/></linearGradient><linearGradient id="e" x1="3.971814%" x2="113.236711%" y1="59.932776%" y2="23.059589%"><stop offset="0" stop-color="#f97b55"/><stop offset="1" stop-color="#fa8e62"/></linearGradient><linearGradient id="f" x1="0%" x2="98.832641%" y1="74.481616%" y2="26.867968%"><stop offset="0" stop-color="#f9845c"/><stop offset="1" stop-color="#fa8c61"/></linearGradient><linearGradient id="g" x1="4.873968%" x2="71.417237%" y1="50%" y2="3.590033%"><stop offset="0" stop-color="#f87350"/><stop offset="1" stop-color="#fa8d62"/></linearGradient><g fill="none" fill-rule="evenodd" transform="translate(-7 -7)"><path d="m242 7v138.449159l-235 49.550841v-188z" fill="url(#a)"/><path d="m241 7v139l481-99.623048v-39.376952z" fill="url(#b)"/><path d="m0 194.316379v391.683621l1446-303.328738v-282.671262h-549.581399z" fill="url(#c)"/><path d="m775 232.35455 680-156.35455-7.97737 204.840404-672.02263 138.159596z" fill="url(#d)"/><path d="m7 571.063579v188.936421l478-96.70096v-191.29904z" fill="url(#e)"/><path d="m480 472.932435 970-199.932435v202.048016l-964.962869 187.951984z" fill="url(#f)"/><path d="m721 5v39.5706963l206-39.5706963z" fill="url(#g)"/></g></svg>