<svg height="753" viewBox="0 0 1440 753" width="1440" xmlns="http://www.w3.org/2000/svg" xmlns:xlink="http://www.w3.org/1999/xlink"><linearGradient id="a" x1="0%" x2="100%" y1="0%" y2="78.192135%"><stop offset="0" stop-color="#8ee9f2"/><stop offset="1" stop-color="#8ed8f2"/></linearGradient><linearGradient id="b" x1="0%" x2="87.446004%" y1="100%" y2="23.696943%"><stop offset="0" stop-color="#8ed7f2"/><stop offset="1" stop-color="#8ee8f2"/></linearGradient><linearGradient id="c" x1="101.205512%" x2="3.016422%" y1="19.106856%" y2="71.86664%"><stop offset="0" stop-color="#8eeaf2"/><stop offset="1" stop-color="#8ed6f2"/></linearGradient><linearGradient id="d" x1="100%" x2="2.50858%" y1="19.763489%" y2="62.933625%"><stop offset="0" stop-color="#8ed6f2"/><stop offset="1" stop-color="#b0f7ff"/></linearGradient><linearGradient id="e" x1="3.971814%" x2="110.142911%" y1="59.932776%" y2="24.103641%"><stop offset="0" stop-color="#8ee7f2"/><stop offset="1" stop-color="#96def5"/></linearGradient><linearGradient id="f" x1="0%" x2="100%" y1="74.481616%" y2="26.30558%"><stop offset="0" stop-color="#8ed6f2"/><stop offset="1" stop-color="#8ee8f2"/></linearGradient><linearGradient id="g" x1="4.873968%" x2="71.602855%" y1="50%" y2="3.460575%"><stop offset="0" stop-color="#8edff2"/><stop offset="1" stop-color="#8ed6f2"/></linearGradient><g fill="none" fill-rule="evenodd"><path d="m235 0v138.449159l-235 49.550841v-188z" fill="url(#a)"/><path d="m234 0v139l481-99.623048v-39.376952z" fill="url(#b)"/><path d="m0 187.352823v377.647177l1446-292.458596v-272.541404h-549.581399z" fill="url(#c)"/><path d="m768 225.35455 680-156.35455-7.97737 204.840404-672.02263 138.159596z" fill="url(#d)"/><path d="m0 564.063579v188.936421l478-96.70096v-191.29904z" fill="url(#e)"/><path d="m473 465.932435 970-199.932435v202.048016l-964.962869 187.951984z" fill="url(#f)"/><path d="m714 0v40l206-40z" fill="url(#g)"/></g></svg>