<svg enable-background="new 0 0 1440 753" viewBox="0 0 1440 753" xmlns="http://www.w3.org/2000/svg" xmlns:xlink="http://www.w3.org/1999/xlink"><linearGradient id="a" gradientTransform="matrix(235 0 0 -188 -58266 438676)" gradientUnits="userSpaceOnUse" x1="247.9339" x2="248.9339" y1="2333.3281" y2="2332.511"><stop offset="0" stop-color="#252525"/><stop offset="1" stop-color="#3f3f3f"/></linearGradient><linearGradient id="b" gradientTransform="matrix(481 0 0 -139 -119286 324800)" gradientUnits="userSpaceOnUse" x1="249.1868" x2="248.2919" y1="2336.7112" y2="2335.9302"><stop offset="0" stop-color="#646464"/><stop offset="1" stop-color="#3c3c3c"/></linearGradient><linearGradient id="c" gradientTransform="matrix(206 0 0 -40 -50331 94724)" gradientUnits="userSpaceOnUse" x1="247.8677" x2="248.5592" y1="2367.6228" y2="2368.1052"><stop offset="0" stop-color="#646464"/><stop offset="1" stop-color="#868484"/></linearGradient><linearGradient id="d" gradientTransform="matrix(1446 0 0 -565 -359805 1314824)" gradientUnits="userSpaceOnUse" x1="249.8214" x2="248.8093" y1="2326.9771" y2="2326.4331"><stop offset="0" stop-color="#4e4e4e"/><stop offset="1" stop-color="#2d2d2d"/></linearGradient><linearGradient id="e" gradientTransform="matrix(680 0 0 -343 -168303 798965)" gradientUnits="userSpaceOnUse" x1="249.6835" x2="248.6835" y1="2328.863" y2="2328.4202"><stop offset="0" stop-color="#888585"/><stop offset="1" stop-color="#4e4d4d"/></linearGradient><linearGradient id="f" gradientTransform="matrix(478 0 0 -288 -118773 671541)" gradientUnits="userSpaceOnUse" x1="248.5549" x2="249.6884" y1="2329.4746" y2="2329.8572"><stop offset="0" stop-color="#3c3c3c"/><stop offset="1" stop-color="#646464"/></linearGradient><linearGradient id="g" gradientTransform="matrix(970 0 0 -390.6318 -240808 909858.25)" gradientUnits="userSpaceOnUse" x1="249.7514" x2="248.7514" y1="2328.2551" y2="2327.7734"><stop offset="0" stop-color="#868484"/><stop offset="1" stop-color="#646464"/></linearGradient><g transform="translate(-9)"><path d="m244 0v138.4l-235 49.6v-188z" fill="url(#a)"/><path d="m243 0v139l481-99.6v-39.4z" fill="url(#b)"/><path d="m723 0v40l206-40z" fill="url(#c)"/><path d="m9 187.4v377.6l1446-292.5v-272.5h-549.6z" fill="url(#d)"/><path d="m777 225.4 680-156.4-8 204.8-672 138.2z" fill="url(#e)"/><path d="m9 564.1v188.9l478-96.7v-191.3z" fill="url(#f)"/><path d="m482 465.9 970-199.9v202l-966.7 188.6z" fill="url(#g)"/></g></svg>