<svg height="753" viewBox="0 0 1440 753" width="1440" xmlns="http://www.w3.org/2000/svg" xmlns:xlink="http://www.w3.org/1999/xlink"><linearGradient id="a" x1="0%" x2="94.572764%" y1="0%" y2="73.948463%"><stop offset="0" stop-color="#8e81f4"/><stop offset="1" stop-color="#8163e6"/></linearGradient><linearGradient id="b" x1="0%" x2="87.446004%" y1="100%" y2="23.696943%"><stop offset="0" stop-color="#7f5fe4"/><stop offset="1" stop-color="#8b7af1"/></linearGradient><linearGradient id="c" x1="101.205512%" x2="9.231079%" y1="19.106856%" y2="68.527328%"><stop offset="0" stop-color="#5d15c1"/><stop offset="1" stop-color="#8771ed"/></linearGradient><linearGradient id="d" x1="5.136939%" x2="100%" y1="61.769763%" y2="19.763489%"><stop offset="0" stop-color="#703fd5"/><stop offset="1" stop-color="#9761eb"/></linearGradient><linearGradient id="e" x1="3.971814%" x2="100%" y1="59.932776%" y2="27.655225%"><stop offset="0" stop-color="#8b79f1"/><stop offset="1" stop-color="#815ee3"/></linearGradient><linearGradient id="f" x1="0%" x2="100%" y1="74.481616%" y2="26.30558%"><stop offset="0" stop-color="#7c59e1"/><stop offset="1" stop-color="#b891f3"/></linearGradient><linearGradient id="g" x1="4.873968%" x2="69.864119%" y1="50%" y2="4.67324%"><stop offset="0" stop-color="#703fd5"/><stop offset="1" stop-color="#662acb"/></linearGradient><g fill="none" fill-rule="evenodd" transform="translate(0 -2)"><path d="m235 2v138.449159l-235 49.550841v-188z" fill="url(#a)"/><path d="m234 2v139l481-99.623048v-39.376952z" fill="url(#b)"/><path d="m0 189.352823v377.647177l1446-292.458596v-272.541404h-549.581399z" fill="url(#c)"/><path d="m768 227.35455 680-156.35455-7.97737 204.840404-672.02263 138.159596z" fill="url(#d)"/><path d="m0 566.063579v188.936421l478-96.70096v-191.29904z" fill="url(#e)"/><path d="m473 467.932435 970-199.932435v202.048016l-964.962869 187.951984z" fill="url(#f)"/><path d="m714 0v40.3014121l206-40.3014121z" fill="url(#g)"/></g></svg>